<?xml version="1.0" encoding="UTF-8"?>
<svg id="Layer_2" data-name="Layer 2" xmlns="http://www.w3.org/2000/svg" viewBox="0 0 570.68 172.67">
  <defs>
    <style>
      .cls-1 {
        fill: #c4e1f2;
      }

      .cls-2 {
        fill: #dc4770;
      }

      .cls-3 {
        fill: #f9d949;
      }

      .cls-4 {
        fill: #ffe36a;
      }

      .cls-4, .cls-5, .cls-6, .cls-7 {
        stroke-miterlimit: 10;
      }

      .cls-4, .cls-6, .cls-7 {
        stroke: #c99b42;
        stroke-width: 2px;
      }

      .cls-8 {
        fill: #ccc;
      }

      .cls-5 {
        stroke: #150013;
        stroke-linecap: round;
        stroke-width: 4px;
      }

      .cls-5, .cls-6 {
        fill: none;
      }

      .cls-9 {
        fill: #f7931e;
      }

      .cls-7 {
        fill: #f8cb46;
      }

      .cls-10 {
        fill: #81abcf;
      }

      .cls-11 {
        fill: #f2f2f2;
      }

      .cls-12 {
        fill: #f26680;
      }

      .cls-13 {
        fill: #150013;
      }
    </style>
  </defs>
  <g id="Layer_1-2" data-name="Layer 1">
    <g>
      <g>
        <path class="cls-5" d="M96.34,53.04l6.27-.27c3.32-.15,7.39,1.95,10.66,5.49l4.84,5.24"/>
        <path class="cls-12" d="M38.2,104.17l-1.37,1.99-1.84,1.59c-9.82-5.02-20.41-5.07-31.38-4.16-1.26.1-2.2-.18-2.83-.97-.53-.67-1.16-1.85-.53-2.81,6.65-10.02,14.8-18.82,24.83-25.61l9.48-5.44c15.57-7.59,33.05-9.97,50.19-7.02l-7.86,5.12c-15.23,9.92-28.58,22.6-38.71,37.32Z"/>
        <path class="cls-12" d="M49.96,133.11l5.12-.77c18.51-2.78,36.54-8.74,53.11-18.07,2.04-1.15,3.57-2.6,5.89-2.73-5.65,16.85-16.14,30.93-30.37,41.18-12.29,8.84-26.74,13.3-41.64,15.04-1.29.15-2.26-.39-2.8-1.22-.5-.77-.73-2.07-.06-3.05,5.89-8.6,11.42-20.35,10.75-30.38Z"/>
        <path class="cls-1" d="M141.52,53.84l9.59,2.38-2.34,9.04-1.13,2.81c-2.76,7.94-6.6,15.33-11.27,22.17-10.4-10.37-18.72-23.58-23.09-37.37,9.41-.91,18.87-.4,28.24.98Z"/>
        <path class="cls-11" d="M113.28,52.86c-20.41,1.96-39.72,9.9-55.32,22.74-10.27,8.45-18.66,18.89-24.8,30.63.19.69.81,1.32,1.2,1.95l14.63,23.5c.42.68.65,1.56,1.32,2.06,13.56.2,27-2.08,39.52-6.9,18.96-7.29,35.28-20.1,46.54-36.61-10.4-10.37-18.72-23.58-23.09-37.37Z"/>
        <path class="cls-5" d="M118.36,5.38c-.24,1.8-1.42,9.13-7.71,15.09-6.02,5.7-12.75,6.36-14.56,6.48"/>
        <ellipse class="cls-7" cx="65.88" cy="33.39" rx="32.25" ry="32.39"/>
        <ellipse class="cls-4" cx="70.27" cy="33.94" rx="31.48" ry="31.62"/>
        <ellipse class="cls-13" cx="62.68" cy="28.06" rx="3.98" ry="5.74"/>
        <ellipse class="cls-13" cx="82.61" cy="27.66" rx="3.98" ry="5.74"/>
        <path class="cls-13" d="M72.8,40.32c4.4-.11,5.76-1.14,8.87-1.76.77-.15,1.5.41,1.53,1.2.07,1.76-.17,4.69-2.12,7.54-.58.85-1.23,1.57-1.89,2.16-3.25,2.91-8.12,3.04-11.62.45-.87-.65-1.72-1.46-2.46-2.47-.02-.02-3.45-6.69-2.13-7.65.22-.16.5-.11.59-.1,2.52.38,7.56.67,9.23.62Z"/>
        <path class="cls-5" d="M40.1,43.35c-1.68.67-8.62,3.25-16.87.67-7.9-2.47-11.78-8.03-12.77-9.55"/>
        <path class="cls-5" d="M70.21,64.82l5.02,3.79c2.66,2.01,4.46,6.23,4.74,11.06l.41,7.16"/>
        <circle class="cls-6" cx="70.27" cy="33.94" r="25.45"/>
        <path class="cls-8" d="M128.17,80.9c-6.14,10.68-13.11,17.72-18.05,21.99-18.47,15.94-39.15,19.42-48.32,20.84-6.92,1.08-12.8,1.29-16.97,1.27,1.39,2.23,2.77,4.45,4.16,6.68.42.68.65,1.56,1.32,2.06,13.56.2,27-2.08,39.52-6.9,18.96-7.29,35.28-20.1,46.54-36.61-2.74-3.11-5.47-6.22-8.21-9.33Z"/>
        <path class="cls-10" d="M143.16,54.25c2.5.62,5.45,1.35,7.95,1.97l-2.34,9.04-1.13,2.81c-2.76,7.94-6.6,15.33-11.27,22.17-1.76-1.91-3.54-3.89-5.32-5.94-.98-1.13-1.94-2.26-2.88-3.39,2.72-2.94,4.59-5.74,6.17-8.05.97-1.43,3.32-5.12,5.69-10.2,1.5-3.22,2.38-6.1,3.13-8.41Z"/>
        <path class="cls-2" d="M64.34,154.73c15.54-7.52,25.88-17,32-22.6,7.52-6.89,13.1-13.41,16.94-18.32-1.93,5.3-5.16,12.48-10.63,20.05-1.66,2.3-7.7,10.75-18.95,18.85-12.29,8.84-26.74,13.3-41.64,15.04-1.24.14-2.06-.45-2.06-.45-.22-.14-.39-.31-.52-.45-.13-.15-.22-.29-.23-.31-.22-.54,17.8-8.29,25.08-11.81Z"/>
        <g>
          <path class="cls-9" d="M43.14,132.91c-5.54,5.83-12.83,9.92-21.18,10.16l3.58-6.67-6.73,2.01c-3.71,1.11-7.47,1.56-11.38,1.52,1.56-3.6,3.53-6.83,6.06-9.75l4.6-5.31-7.54.51c3.74-7.65,10.34-12.38,17.87-15.27l14.73,22.8Z"/>
          <path class="cls-3" d="M41.01,129.5c-3.81,4.02-8.83,6.83-14.58,6.99l2.46-4.59-4.63,1.39c-2.55.76-5.14,1.08-7.84,1.04,1.07-2.48,2.43-4.7,4.17-6.71l3.17-3.65-5.19.35c2.57-5.26,7.12-8.52,12.3-10.51l10.14,15.69Z"/>
        </g>
      </g>
      <g>
        <path class="cls-12" d="M189.56,24.86c-.6-1.1-1.45-1.93-2.56-2.51-1.11-.58-2.42-.87-3.92-.87-2.6,0-4.68.85-6.25,2.56-1.57,1.71-2.35,3.99-2.35,6.84,0,3.04.82,5.41,2.47,7.12,1.65,1.71,3.91,2.56,6.79,2.56,1.97,0,3.64-.5,5-1.5,1.36-1,2.36-2.44,2.98-4.32h-10.2v-5.92h17.48v7.47c-.6,2.01-1.61,3.87-3.03,5.59-1.43,1.72-3.24,3.12-5.43,4.18-2.19,1.07-4.67,1.6-7.43,1.6-3.26,0-6.17-.71-8.72-2.14s-4.54-3.41-5.97-5.95-2.14-5.44-2.14-8.69.71-6.16,2.14-8.72c1.43-2.55,3.41-4.54,5.95-5.97,2.54-1.43,5.44-2.14,8.7-2.14,3.95,0,7.28.96,9.99,2.87,2.71,1.91,4.5,4.56,5.38,7.94h-8.88Z"/>
        <path class="cls-12" d="M228.05,36.23h-18.19c.12,1.63.65,2.88,1.58,3.74.92.86,2.06,1.29,3.41,1.29,2,0,3.4-.85,4.18-2.54h8.55c-.44,1.72-1.23,3.27-2.37,4.65-1.14,1.38-2.58,2.46-4.3,3.24s-3.65,1.17-5.78,1.17c-2.57,0-4.86-.55-6.86-1.65-2.01-1.1-3.57-2.66-4.7-4.7-1.13-2.04-1.69-4.42-1.69-7.14s.56-5.11,1.67-7.14c1.11-2.04,2.67-3.6,4.68-4.7,2-1.1,4.31-1.65,6.91-1.65s4.79.53,6.77,1.6c1.97,1.07,3.52,2.58,4.63,4.56,1.11,1.97,1.67,4.28,1.67,6.91,0,.75-.05,1.54-.14,2.35ZM220.53,13.67v5.55l-11.33-4.75v-6.25l11.33,5.45ZM219.97,31.77c0-1.38-.47-2.48-1.41-3.29-.94-.81-2.12-1.22-3.53-1.22s-2.48.39-3.41,1.18c-.92.78-1.5,1.9-1.72,3.34h10.06Z"/>
        <path class="cls-12" d="M243.98,22.16c1.41-.83,2.98-1.25,4.7-1.25v8.51h-2.21c-2.01,0-3.51.43-4.51,1.29-1,.86-1.5,2.37-1.5,4.54v12.17h-8.04v-26.23h8.04v4.37c.94-1.44,2.12-2.58,3.52-3.41Z"/>
        <path class="cls-12" d="M277.12,36.23h-18.19c.12,1.63.65,2.88,1.58,3.74.92.86,2.06,1.29,3.41,1.29,2,0,3.4-.85,4.18-2.54h8.55c-.44,1.72-1.23,3.27-2.37,4.65-1.14,1.38-2.58,2.46-4.3,3.24s-3.65,1.17-5.78,1.17c-2.57,0-4.86-.55-6.86-1.65-2.01-1.1-3.57-2.66-4.7-4.7-1.13-2.04-1.69-4.42-1.69-7.14s.56-5.11,1.67-7.14c1.11-2.04,2.67-3.6,4.68-4.7,2-1.1,4.31-1.65,6.91-1.65s4.79.53,6.77,1.6c1.97,1.07,3.52,2.58,4.63,4.56,1.11,1.97,1.67,4.28,1.67,6.91,0,.75-.05,1.54-.14,2.35ZM269.03,31.77c0-1.38-.47-2.48-1.41-3.29-.94-.81-2.12-1.22-3.53-1.22s-2.48.39-3.41,1.18c-.92.78-1.5,1.9-1.72,3.34h10.06Z"/>
        <path class="cls-12" d="M306.07,40.6v6.81h-4.09c-2.91,0-5.19-.71-6.82-2.14-1.63-1.43-2.44-3.75-2.44-6.98v-10.43h-3.2v-6.67h3.2v-6.39h8.04v6.39h5.26v6.67h-5.26v10.53c0,.78.19,1.35.56,1.69.38.35,1,.52,1.88.52h2.87Z"/>
        <path class="cls-12" d="M310.46,27.16c1.02-2.04,2.4-3.6,4.16-4.7,1.75-1.1,3.71-1.65,5.88-1.65,1.85,0,3.47.38,4.86,1.13s2.47,1.74,3.22,2.96v-3.71h8.04v26.23h-8.04v-3.71c-.78,1.22-1.87,2.21-3.27,2.96-1.39.75-3.02,1.13-4.86,1.13-2.13,0-4.07-.56-5.83-1.67-1.75-1.11-3.14-2.69-4.16-4.75-1.02-2.05-1.53-4.43-1.53-7.12s.51-5.06,1.53-7.1ZM326.91,29.56c-1.11-1.16-2.47-1.74-4.07-1.74s-2.95.57-4.07,1.72c-1.11,1.14-1.67,2.72-1.67,4.72s.56,3.6,1.67,4.77c1.11,1.18,2.47,1.76,4.07,1.76s2.95-.58,4.07-1.74c1.11-1.16,1.67-2.74,1.67-4.75s-.56-3.59-1.67-4.75Z"/>
        <path class="cls-12" d="M367.03,40.6v6.81h-4.09c-2.91,0-5.19-.71-6.82-2.14-1.63-1.43-2.44-3.75-2.44-6.98v-10.43h-3.2v-6.67h3.2v-6.39h8.04v6.39h5.26v6.67h-5.26v10.53c0,.78.19,1.35.56,1.69.38.35,1,.52,1.88.52h2.87Z"/>
        <path class="cls-12" d="M394.85,23.89c1.82,1.99,2.73,4.72,2.73,8.2v15.32h-7.99v-14.24c0-1.75-.45-3.12-1.36-4.09-.91-.97-2.13-1.46-3.67-1.46s-2.76.49-3.67,1.46c-.91.97-1.36,2.33-1.36,4.09v14.24h-8.04V12.64h8.04v12.08c.81-1.16,1.93-2.08,3.34-2.77,1.41-.69,2.99-1.03,4.75-1.03,3.01,0,5.42,1,7.24,2.98Z"/>
        <path class="cls-12" d="M429.07,21.19v26.23h-8.04v-3.57c-.82,1.16-1.92,2.09-3.31,2.8-1.39.71-2.94,1.06-4.63,1.06-2.01,0-3.78-.45-5.31-1.34s-2.73-2.19-3.57-3.88c-.85-1.69-1.27-3.68-1.27-5.97v-15.32h7.99v14.24c0,1.75.45,3.12,1.36,4.09.91.97,2.13,1.46,3.67,1.46s2.8-.49,3.71-1.46c.91-.97,1.36-2.33,1.36-4.09v-14.24h8.04Z"/>
        <path class="cls-12" d="M458.18,23.89c1.83,1.99,2.75,4.72,2.75,8.2v15.32h-7.99v-14.24c0-1.75-.45-3.12-1.36-4.09-.91-.97-2.13-1.46-3.67-1.46s-2.76.49-3.67,1.46c-.91.97-1.36,2.33-1.36,4.09v14.24h-8.04v-26.23h8.04v3.48c.81-1.16,1.91-2.08,3.29-2.75,1.38-.67,2.93-1.01,4.65-1.01,3.07,0,5.52,1,7.36,2.98Z"/>
        <path class="cls-12" d="M491.11,36.23h-18.19c.12,1.63.65,2.88,1.58,3.74.92.86,2.06,1.29,3.41,1.29,2,0,3.4-.85,4.18-2.54h8.55c-.44,1.72-1.23,3.27-2.37,4.65-1.14,1.38-2.58,2.46-4.3,3.24s-3.65,1.17-5.78,1.17c-2.57,0-4.86-.55-6.86-1.65-2.01-1.1-3.57-2.66-4.7-4.7-1.13-2.04-1.69-4.42-1.69-7.14s.56-5.11,1.67-7.14c1.11-2.04,2.67-3.6,4.68-4.7,2-1.1,4.31-1.65,6.91-1.65s4.79.53,6.77,1.6c1.97,1.07,3.52,2.58,4.63,4.56,1.11,1.97,1.67,4.28,1.67,6.91,0,.75-.05,1.54-.14,2.35ZM483.02,31.77c0-1.38-.47-2.48-1.41-3.29-.94-.81-2.12-1.22-3.53-1.22s-2.48.39-3.41,1.18c-.92.78-1.5,1.9-1.72,3.34h10.06Z"/>
        <path class="cls-12" d="M168.41,78.56c1.41-2.55,3.38-4.54,5.9-5.97,2.52-1.43,5.38-2.14,8.58-2.14,3.92,0,7.27,1.03,10.06,3.1,2.79,2.07,4.65,4.89,5.59,8.46h-8.84c-.66-1.38-1.59-2.43-2.8-3.15-1.21-.72-2.58-1.08-4.11-1.08-2.48,0-4.48.86-6.02,2.58-1.54,1.72-2.3,4.03-2.3,6.91s.77,5.19,2.3,6.91c1.53,1.72,3.54,2.58,6.02,2.58,1.54,0,2.91-.36,4.11-1.08,1.21-.72,2.14-1.77,2.8-3.15h8.84c-.94,3.57-2.8,6.38-5.59,8.44-2.79,2.05-6.14,3.08-10.06,3.08-3.2,0-6.06-.71-8.58-2.14-2.52-1.43-4.49-3.41-5.9-5.95s-2.12-5.44-2.12-8.69.71-6.16,2.12-8.72Z"/>
        <path class="cls-12" d="M226.83,80.29c1.82,1.99,2.73,4.72,2.73,8.2v15.32h-7.99v-14.24c0-1.75-.45-3.12-1.36-4.09-.91-.97-2.13-1.46-3.67-1.46s-2.76.49-3.67,1.46c-.91.97-1.36,2.33-1.36,4.09v14.24h-8.04v-34.78h8.04v12.08c.81-1.16,1.93-2.08,3.34-2.77,1.41-.69,2.99-1.03,4.75-1.03,3.01,0,5.42,1,7.24,2.98Z"/>
        <path class="cls-12" d="M259.73,92.63h-18.19c.12,1.63.65,2.88,1.58,3.74.92.86,2.06,1.29,3.41,1.29,2,0,3.4-.85,4.18-2.54h8.55c-.44,1.72-1.23,3.27-2.37,4.65-1.14,1.38-2.58,2.46-4.3,3.24s-3.65,1.17-5.78,1.17c-2.57,0-4.86-.55-6.86-1.65-2.01-1.1-3.57-2.66-4.7-4.7-1.13-2.04-1.69-4.42-1.69-7.14s.56-5.11,1.67-7.14c1.11-2.04,2.67-3.6,4.68-4.7,2-1.1,4.31-1.65,6.91-1.65s4.79.53,6.77,1.6c1.97,1.07,3.52,2.58,4.63,4.56,1.11,1.97,1.67,4.28,1.67,6.91,0,.75-.05,1.54-.14,2.35ZM251.64,88.17c0-1.38-.47-2.48-1.41-3.29-.94-.81-2.12-1.22-3.53-1.22s-2.48.39-3.41,1.18c-.92.78-1.5,1.9-1.72,3.34h10.06Z"/>
        <path class="cls-12" d="M264.17,83.56c1.11-2.04,2.66-3.6,4.65-4.7,1.99-1.1,4.27-1.65,6.84-1.65,3.29,0,6.04.86,8.25,2.58,2.21,1.72,3.66,4.15,4.35,7.29h-8.55c-.72-2-2.11-3.01-4.18-3.01-1.47,0-2.65.57-3.53,1.72-.88,1.14-1.32,2.78-1.32,4.91s.44,3.77,1.32,4.91c.88,1.14,2.05,1.72,3.53,1.72,2.07,0,3.46-1,4.18-3.01h8.55c-.69,3.07-2.15,5.48-4.37,7.24-2.23,1.75-4.97,2.63-8.23,2.63-2.57,0-4.85-.55-6.84-1.65-1.99-1.1-3.54-2.66-4.65-4.7-1.11-2.04-1.67-4.42-1.67-7.14s.56-5.11,1.67-7.14Z"/>
        <path class="cls-12" d="M308.56,103.82l-7.99-11v11h-8.04v-34.78h8.04v19.22l7.94-10.67h9.92l-10.9,13.16,11,13.07h-9.96Z"/>
        <path class="cls-12" d="M331.47,83.56c1.02-2.04,2.4-3.6,4.16-4.7,1.75-1.1,3.71-1.65,5.88-1.65,1.72,0,3.3.36,4.72,1.08,1.43.72,2.54,1.69,3.36,2.91v-12.17h8.04v34.78h-8.04v-3.76c-.75,1.25-1.83,2.26-3.22,3.01s-3.02,1.13-4.86,1.13c-2.16,0-4.12-.56-5.88-1.67-1.75-1.11-3.14-2.69-4.16-4.75-1.02-2.05-1.53-4.43-1.53-7.12s.51-5.06,1.53-7.1ZM347.92,85.96c-1.11-1.16-2.47-1.74-4.07-1.74s-2.95.57-4.07,1.72c-1.11,1.14-1.67,2.72-1.67,4.72s.56,3.6,1.67,4.77c1.11,1.18,2.47,1.76,4.07,1.76s2.95-.58,4.07-1.74c1.11-1.16,1.67-2.74,1.67-4.75s-.56-3.59-1.67-4.75Z"/>
        <path class="cls-12" d="M388.04,92.63h-18.19c.12,1.63.65,2.88,1.58,3.74.92.86,2.06,1.29,3.41,1.29,2,0,3.4-.85,4.18-2.54h8.55c-.44,1.72-1.23,3.27-2.37,4.65-1.14,1.38-2.58,2.46-4.3,3.24s-3.65,1.17-5.78,1.17c-2.57,0-4.86-.55-6.86-1.65-2.01-1.1-3.57-2.66-4.7-4.7-1.13-2.04-1.69-4.42-1.69-7.14s.56-5.11,1.67-7.14c1.11-2.04,2.67-3.6,4.68-4.7,2-1.1,4.31-1.65,6.91-1.65s4.79.53,6.77,1.6c1.97,1.07,3.52,2.58,4.63,4.56,1.11,1.97,1.67,4.28,1.67,6.91,0,.75-.05,1.54-.14,2.35ZM379.95,88.17c0-1.38-.47-2.48-1.41-3.29-.94-.81-2.12-1.22-3.53-1.22s-2.48.39-3.41,1.18c-.92.78-1.5,1.9-1.72,3.34h10.06Z"/>
        <path class="cls-12" d="M393,73.62c-.89-.83-1.34-1.86-1.34-3.08s.45-2.29,1.34-3.13c.89-.83,2.04-1.25,3.45-1.25s2.51.42,3.41,1.25c.89.83,1.34,1.87,1.34,3.13s-.45,2.25-1.34,3.08c-.89.83-2.03,1.25-3.41,1.25s-2.56-.41-3.45-1.25ZM400.44,77.59v26.23h-8.04v-26.23h8.04Z"/>
        <path class="cls-12" d="M429.61,80.29c1.83,1.99,2.75,4.72,2.75,8.2v15.32h-7.99v-14.24c0-1.75-.45-3.12-1.36-4.09-.91-.97-2.13-1.46-3.67-1.46s-2.76.49-3.67,1.46c-.91.97-1.36,2.33-1.36,4.09v14.24h-8.04v-26.23h8.04v3.48c.81-1.16,1.91-2.08,3.29-2.75,1.38-.67,2.93-1.01,4.65-1.01,3.07,0,5.52,1,7.36,2.98Z"/>
        <path class="cls-12" d="M469.82,81.26c-.6-1.1-1.45-1.93-2.56-2.51-1.11-.58-2.42-.87-3.92-.87-2.6,0-4.68.85-6.25,2.56-1.57,1.71-2.35,3.99-2.35,6.84,0,3.04.82,5.41,2.47,7.12,1.65,1.71,3.91,2.56,6.79,2.56,1.97,0,3.64-.5,5-1.5,1.36-1,2.36-2.44,2.98-4.32h-10.2v-5.92h17.48v7.47c-.6,2.01-1.61,3.87-3.03,5.59-1.43,1.72-3.24,3.12-5.43,4.18-2.19,1.07-4.67,1.6-7.43,1.6-3.26,0-6.17-.71-8.72-2.14s-4.54-3.41-5.97-5.95-2.14-5.44-2.14-8.69.71-6.16,2.14-8.72c1.43-2.55,3.41-4.54,5.95-5.97,2.54-1.43,5.44-2.14,8.7-2.14,3.95,0,7.28.96,9.99,2.87,2.71,1.91,4.5,4.56,5.38,7.94h-8.88Z"/>
        <path class="cls-12" d="M508.31,92.63h-18.19c.12,1.63.65,2.88,1.58,3.74.92.86,2.06,1.29,3.41,1.29,2,0,3.4-.85,4.18-2.54h8.55c-.44,1.72-1.23,3.27-2.37,4.65-1.14,1.38-2.58,2.46-4.3,3.24s-3.65,1.17-5.78,1.17c-2.57,0-4.86-.55-6.86-1.65-2.01-1.1-3.57-2.66-4.7-4.7-1.13-2.04-1.69-4.42-1.69-7.14s.56-5.11,1.67-7.14c1.11-2.04,2.67-3.6,4.68-4.7,2-1.1,4.31-1.65,6.91-1.65s4.79.53,6.77,1.6c1.97,1.07,3.52,2.58,4.63,4.56,1.11,1.97,1.67,4.28,1.67,6.91,0,.75-.05,1.54-.14,2.35ZM500.22,88.17c0-1.38-.47-2.48-1.41-3.29-.94-.81-2.12-1.22-3.53-1.22s-2.48.39-3.41,1.18c-.92.78-1.5,1.9-1.72,3.34h10.06Z"/>
        <path class="cls-12" d="M520.72,69.04v34.78h-8.04v-34.78h8.04Z"/>
        <path class="cls-12" d="M526.47,83.56c1.02-2.04,2.4-3.6,4.16-4.7,1.75-1.1,3.71-1.65,5.88-1.65,1.72,0,3.3.36,4.72,1.08,1.43.72,2.54,1.69,3.36,2.91v-12.17h8.04v34.78h-8.04v-3.76c-.75,1.25-1.83,2.26-3.22,3.01s-3.02,1.13-4.86,1.13c-2.16,0-4.12-.56-5.88-1.67-1.75-1.11-3.14-2.69-4.16-4.75-1.02-2.05-1.53-4.43-1.53-7.12s.51-5.06,1.53-7.1ZM542.92,85.96c-1.11-1.16-2.47-1.74-4.07-1.74s-2.95.57-4.07,1.72c-1.11,1.14-1.67,2.72-1.67,4.72s.56,3.6,1.67,4.77c1.11,1.18,2.47,1.76,4.07,1.76s2.95-.58,4.07-1.74c1.11-1.16,1.67-2.74,1.67-4.75s-.56-3.59-1.67-4.75Z"/>
        <path class="cls-12" d="M174.73,158.38c-2.58-1.44-4.64-3.45-6.16-6.04s-2.28-5.49-2.28-8.72.76-6.13,2.28-8.7c1.52-2.57,3.57-4.57,6.16-6.02,2.58-1.44,5.43-2.16,8.53-2.16s5.95.72,8.53,2.16c2.58,1.44,4.62,3.45,6.11,6.02,1.49,2.57,2.23,5.47,2.23,8.7s-.75,6.13-2.26,8.72-3.54,4.6-6.11,6.04c-2.57,1.44-5.41,2.16-8.51,2.16s-5.95-.72-8.53-2.16ZM189.58,150.58c1.58-1.75,2.37-4.07,2.37-6.96s-.79-5.24-2.37-6.98c-1.58-1.74-3.69-2.61-6.32-2.61s-4.79.86-6.37,2.58c-1.58,1.72-2.37,4.06-2.37,7s.79,5.24,2.37,6.98c1.58,1.74,3.71,2.61,6.37,2.61s4.74-.88,6.32-2.63Z"/>
        <path class="cls-12" d="M242.24,133.99l-7.1,26.23h-8.88l-4.14-17.01-4.28,17.01h-8.84l-7.14-26.23h8.04l3.71,18.75,4.42-18.75h8.51l4.46,18.66,3.67-18.66h7.57Z"/>
        <path class="cls-12" d="M268.63,136.69c1.83,1.99,2.75,4.72,2.75,8.2v15.32h-7.99v-14.24c0-1.75-.45-3.12-1.36-4.09-.91-.97-2.13-1.46-3.67-1.46s-2.76.49-3.67,1.46c-.91.97-1.36,2.33-1.36,4.09v14.24h-8.04v-26.23h8.04v3.48c.81-1.16,1.91-2.08,3.29-2.75,1.38-.67,2.93-1.01,4.65-1.01,3.07,0,5.52,1,7.36,2.98Z"/>
        <path class="cls-12" d="M315.23,127.22l-11.42,22.09v10.9h-8.04v-10.9l-11.42-22.09h9.12l6.39,13.82,6.34-13.82h9.02Z"/>
        <path class="cls-12" d="M323.48,158.95c-2.05-1.1-3.67-2.66-4.84-4.7-1.17-2.04-1.76-4.42-1.76-7.14s.59-5.07,1.79-7.12c1.19-2.05,2.82-3.63,4.89-4.72,2.07-1.1,4.39-1.65,6.96-1.65s4.89.55,6.96,1.65c2.07,1.1,3.7,2.67,4.89,4.72,1.19,2.05,1.79,4.43,1.79,7.12s-.6,5.07-1.81,7.12c-1.21,2.05-2.85,3.63-4.94,4.72-2.08,1.1-4.41,1.65-6.98,1.65s-4.88-.55-6.93-1.65ZM334.34,151.95c1.08-1.13,1.62-2.74,1.62-4.84s-.53-3.71-1.58-4.84-2.34-1.69-3.88-1.69-2.87.56-3.9,1.67c-1.03,1.11-1.55,2.73-1.55,4.86s.51,3.71,1.53,4.84c1.02,1.13,2.29,1.69,3.83,1.69s2.84-.56,3.92-1.69Z"/>
        <path class="cls-12" d="M374.31,133.99v26.23h-8.04v-3.57c-.82,1.16-1.92,2.09-3.31,2.8-1.39.71-2.94,1.06-4.63,1.06-2.01,0-3.78-.45-5.31-1.34s-2.73-2.19-3.57-3.88c-.85-1.69-1.27-3.68-1.27-5.97v-15.32h7.99v14.24c0,1.75.45,3.12,1.36,4.09.91.97,2.13,1.46,3.67,1.46s2.8-.49,3.71-1.46c.91-.97,1.36-2.33,1.36-4.09v-14.24h8.04Z"/>
        <path class="cls-12" d="M391.66,134.96c1.41-.83,2.98-1.25,4.7-1.25v8.51h-2.21c-2.01,0-3.51.43-4.51,1.29-1,.86-1.5,2.37-1.5,4.54v12.17h-8.04v-26.23h8.04v4.37c.94-1.44,2.12-2.58,3.52-3.41Z"/>
        <path class="cls-12" d="M447.54,127.22v32.99h-8.04v-19.79l-7.38,19.79h-6.49l-7.43-19.83v19.83h-8.04v-32.99h9.49l9.26,22.84,9.17-22.84h9.45Z"/>
        <path class="cls-12" d="M458.32,158.95c-2.05-1.1-3.67-2.66-4.84-4.7-1.17-2.04-1.76-4.42-1.76-7.14s.59-5.07,1.79-7.12c1.19-2.05,2.82-3.63,4.89-4.72,2.07-1.1,4.39-1.65,6.96-1.65s4.89.55,6.96,1.65c2.07,1.1,3.7,2.67,4.89,4.72,1.19,2.05,1.79,4.43,1.79,7.12s-.6,5.07-1.81,7.12c-1.21,2.05-2.85,3.63-4.94,4.72-2.08,1.1-4.41,1.65-6.98,1.65s-4.88-.55-6.93-1.65ZM469.18,151.95c1.08-1.13,1.62-2.74,1.62-4.84s-.53-3.71-1.58-4.84-2.34-1.69-3.88-1.69-2.87.56-3.9,1.67c-1.03,1.11-1.55,2.73-1.55,4.86s.51,3.71,1.53,4.84c1.02,1.13,2.29,1.69,3.83,1.69s2.84-.56,3.92-1.69Z"/>
        <path class="cls-12" d="M506.59,136.69c1.83,1.99,2.75,4.72,2.75,8.2v15.32h-7.99v-14.24c0-1.75-.45-3.12-1.36-4.09-.91-.97-2.13-1.46-3.67-1.46s-2.76.49-3.67,1.46c-.91.97-1.36,2.33-1.36,4.09v14.24h-8.04v-26.23h8.04v3.48c.81-1.16,1.91-2.08,3.29-2.75,1.38-.67,2.93-1.01,4.65-1.01,3.07,0,5.52,1,7.36,2.98Z"/>
        <path class="cls-12" d="M539.52,149.03h-18.19c.12,1.63.65,2.88,1.58,3.74.92.86,2.06,1.29,3.41,1.29,2,0,3.4-.85,4.18-2.54h8.55c-.44,1.72-1.23,3.27-2.37,4.65-1.14,1.38-2.58,2.46-4.3,3.24s-3.65,1.17-5.78,1.17c-2.57,0-4.86-.55-6.86-1.65-2.01-1.1-3.57-2.66-4.7-4.7-1.13-2.04-1.69-4.42-1.69-7.14s.56-5.11,1.67-7.14c1.11-2.04,2.67-3.6,4.68-4.7,2-1.1,4.31-1.65,6.91-1.65s4.79.53,6.77,1.6c1.97,1.07,3.52,2.58,4.63,4.56,1.11,1.97,1.67,4.28,1.67,6.91,0,.75-.05,1.54-.14,2.35ZM531.43,144.57c0-1.38-.47-2.48-1.41-3.29-.94-.81-2.12-1.22-3.53-1.22s-2.48.39-3.41,1.18c-.92.78-1.5,1.9-1.72,3.34h10.06Z"/>
        <path class="cls-12" d="M570.68,133.99l-16.45,38.68h-8.65l6.02-13.35-10.67-25.33h8.98l6.06,16.4,6.02-16.4h8.7Z"/>
      </g>
    </g>
  </g>
</svg>