<?xml version="1.0" encoding="UTF-8"?>
<svg id="Layer_2" data-name="Layer 2" xmlns="http://www.w3.org/2000/svg" viewBox="0 0 186.07 267.46">
  <defs>
    <style>
      .cls-1 {
        fill: #ffe36a;
      }

      .cls-1, .cls-2, .cls-3, .cls-4 {
        stroke-miterlimit: 10;
      }

      .cls-1, .cls-3, .cls-4 {
        stroke: #c99b42;
        stroke-width: 2px;
      }

      .cls-5 {
        stroke-linejoin: round;
      }

      .cls-5, .cls-2 {
        stroke: #150013;
        stroke-linecap: round;
        stroke-width: 4px;
      }

      .cls-5, .cls-2, .cls-3 {
        fill: none;
      }

      .cls-4 {
        fill: #f8cb46;
      }

      .cls-6 {
        fill: #150013;
      }
    </style>
  </defs>
  <g id="Layer_1-2" data-name="Layer 1">
    <ellipse class="cls-4" cx="94.16" cy="84.24" rx="82.87" ry="83.24"/>
    <ellipse class="cls-1" cx="94.16" cy="88.12" rx="80.9" ry="81.27"/>
    <ellipse class="cls-6" cx="67.57" cy="73.9" rx="10.23" ry="14.74"/>
    <ellipse class="cls-6" cx="118.79" cy="72.86" rx="10.23" ry="14.74"/>
    <circle class="cls-3" cx="93.18" cy="88.12" r="65.4"/>
    <path class="cls-2" d="M177.03,93.17c3.58,13.24,6.9,30.83,7.03,51.62.09,14.93-1.48,28.05-3.52,38.83"/>
    <path class="cls-5" d="M65.71,167.09c-2.03,12.37-3.7,25.88-4.68,40.39-1.45,21.28-1.17,40.76,0,57.97"/>
    <path class="cls-5" d="M121.94,164.09c2.15,12.35,3.94,25.84,5.07,40.35,1.65,21.27,1.55,40.74.55,57.97"/>
    <path class="cls-2" d="M4.58,188.3c-2.18-13.54-3.64-31.38-1.6-52.08,1.47-14.86,4.4-27.74,7.55-38.25"/>
    <path class="cls-2" d="M69.47,109.67c2.21,1.69,7.85,5.52,16.72,6.71,17.29,2.33,30.06-7.59,30.7-8.1"/>
  </g>
</svg>