<?xml version="1.0" encoding="UTF-8"?>
<svg id="Layer_2" data-name="Layer 2" xmlns="http://www.w3.org/2000/svg" viewBox="0 0 388.34 429.6">
  <defs>
    <style>
      .cls-1 {
        fill: #c4e1f2;
      }

      .cls-2 {
        fill: #dc4770;
      }

      .cls-3 {
        fill: #f9d949;
      }

      .cls-4 {
        fill: #ffe36a;
      }

      .cls-4, .cls-5, .cls-6, .cls-7 {
        stroke-miterlimit: 10;
      }

      .cls-4, .cls-6, .cls-7 {
        stroke: #c99b42;
        stroke-width: 2px;
      }

      .cls-8 {
        fill: #ccc;
      }

      .cls-5 {
        stroke: #150013;
        stroke-linecap: round;
        stroke-width: 4px;
      }

      .cls-5, .cls-6 {
        fill: none;
      }

      .cls-9 {
        fill: #f7931e;
      }

      .cls-7 {
        fill: #f8cb46;
      }

      .cls-10 {
        fill: #81abcf;
      }

      .cls-11 {
        fill: #f2f2f2;
      }

      .cls-12 {
        fill: #f26680;
      }

      .cls-13 {
        fill: #150013;
      }
    </style>
  </defs>
  <g id="Layer_1-2" data-name="Layer 1">
    <g>
      <path class="cls-5" d="M247.58,134.74l16.11-.7c8.53-.37,18.98,5.01,27.38,14.11l12.45,13.48"/>
      <path class="cls-12" d="M98.16,266.13l-3.51,5.11-4.72,4.08c-25.25-12.9-52.45-13.03-80.63-10.7-3.23.27-5.65-.45-7.27-2.5-1.35-1.72-2.98-4.76-1.35-7.21,17.09-25.76,38.03-48.37,63.81-65.81l24.36-13.99c40.02-19.5,84.94-25.62,128.99-18.05l-20.21,13.16c-39.15,25.49-73.45,58.07-99.47,95.91Z"/>
      <path class="cls-12" d="M128.39,340.51l13.16-1.98c47.57-7.15,93.91-22.46,136.49-46.44,5.23-2.95,9.18-6.68,15.13-7.02-14.52,43.29-41.47,79.48-78.06,105.82-31.58,22.73-68.71,34.18-107,38.66-3.32.39-5.81-1-7.21-3.13-1.29-1.97-1.87-5.31-.14-7.83,15.13-22.11,29.35-52.3,27.63-78.08Z"/>
      <path class="cls-1" d="M363.69,136.79l24.65,6.11-6.01,23.23-2.92,7.22c-7.09,20.41-16.96,39.39-28.96,56.97-26.72-26.65-48.12-60.59-59.34-96.04,24.19-2.33,48.5-1.04,72.57,2.51Z"/>
      <path class="cls-11" d="M291.12,134.28c-52.45,5.05-102.09,25.43-142.18,58.43-26.39,21.72-47.96,48.54-63.74,78.72.49,1.78,2.09,3.4,3.09,5.01l37.58,60.39c1.09,1.75,1.68,4.02,3.4,5.29,34.85.5,69.38-5.35,101.57-17.74,48.73-18.74,90.66-51.66,119.61-94.07-26.72-26.65-48.12-60.59-59.34-96.04Z"/>
      <path class="cls-5" d="M304.16,12.25c-.62,4.62-3.65,23.47-19.83,38.77-15.48,14.64-32.77,16.34-37.41,16.65"/>
      <ellipse class="cls-7" cx="169.3" cy="84.24" rx="82.87" ry="83.24"/>
      <ellipse class="cls-4" cx="180.59" cy="85.65" rx="80.9" ry="81.27"/>
      <ellipse class="cls-13" cx="161.07" cy="70.54" rx="10.23" ry="14.74"/>
      <ellipse class="cls-13" cx="212.29" cy="69.5" rx="10.23" ry="14.74"/>
      <path class="cls-13" d="M187.08,102.04c11.31-.29,14.81-2.94,22.8-4.52,1.97-.39,3.85,1.06,3.94,3.08.19,4.52-.44,12.06-5.44,19.38-1.5,2.19-3.16,4.03-4.87,5.56-8.34,7.48-20.87,7.82-29.87,1.16-2.24-1.66-4.42-3.74-6.33-6.36-.05-.06-8.87-17.18-5.47-19.65.57-.41,1.28-.29,1.5-.25,6.47.97,19.42,1.71,23.72,1.6Z"/>
      <path class="cls-5" d="M103.06,109.83c-4.31,1.73-22.14,8.35-43.35,1.72-20.3-6.34-30.28-20.63-32.82-24.53"/>
      <path class="cls-5" d="M180.43,165.01l12.89,9.74c6.83,5.16,11.47,16,12.18,28.42l1.05,18.4"/>
      <circle class="cls-6" cx="180.59" cy="85.65" r="65.4"/>
      <path class="cls-8" d="M329.37,206.34c-15.78,27.45-33.69,45.55-46.39,56.5-47.46,40.95-100.62,49.9-124.17,53.56-17.79,2.77-32.89,3.31-43.61,3.26,3.56,5.72,7.12,11.45,10.69,17.17,1.09,1.75,1.68,4.02,3.4,5.29,34.85.5,69.38-5.35,101.57-17.74,48.73-18.74,90.66-51.66,119.61-94.07-7.03-7.99-14.06-15.99-21.09-23.98Z"/>
      <path class="cls-10" d="M367.9,137.83c6.42,1.59,14.01,3.48,20.44,5.07l-6.01,23.23-2.92,7.22c-7.09,20.41-16.96,39.39-28.96,56.97-4.53-4.9-9.1-9.99-13.68-15.28-2.53-2.92-5-5.82-7.41-8.7,6.98-7.54,11.79-14.74,15.85-20.69,2.5-3.66,8.53-13.15,14.63-26.22,3.86-8.27,6.13-15.69,8.05-21.61Z"/>
      <path class="cls-2" d="M165.35,396.07c39.93-19.34,66.5-43.68,82.22-58.09,19.32-17.7,33.68-34.46,43.54-47.08-4.97,13.62-13.27,32.08-27.31,51.53-4.27,5.92-19.78,27.64-48.69,48.45-31.58,22.73-68.71,34.18-107,38.66-3.18.37-5.29-1.16-5.29-1.16-.56-.37-1.01-.79-1.33-1.16-.34-.38-.56-.75-.59-.8-.57-1.38,45.75-21.29,64.44-30.34Z"/>
      <g>
        <path class="cls-9" d="M110.87,339.98c-14.23,14.99-32.98,25.49-54.44,26.1l9.19-17.15-17.3,5.17c-9.53,2.85-19.19,4.02-29.25,3.9,4-9.24,9.07-17.55,15.58-25.06l11.82-13.64-19.39,1.32c9.6-19.65,26.57-31.82,45.93-39.23l37.84,58.59Z"/>
        <path class="cls-3" d="M105.4,331.23c-9.79,10.32-22.7,17.54-37.47,17.97l6.33-11.8-11.91,3.56c-6.56,1.96-13.21,2.77-20.13,2.68,2.75-6.36,6.24-12.08,10.73-17.25l8.14-9.39-13.35.91c6.61-13.53,18.29-21.9,31.62-27.01l26.05,40.33Z"/>
      </g>
    </g>
  </g>
</svg>