<?xml version="1.0" encoding="UTF-8"?>
<svg id="Layer_2" data-name="Layer 2" xmlns="http://www.w3.org/2000/svg" viewBox="0 0 231.83 267.46">
  <defs>
    <style>
      .cls-1 {
        fill: #ffe36a;
      }

      .cls-1, .cls-2, .cls-3, .cls-4 {
        stroke-miterlimit: 10;
      }

      .cls-1, .cls-3, .cls-4 {
        stroke: #c99b42;
        stroke-width: 2px;
      }

      .cls-5 {
        stroke-linejoin: round;
      }

      .cls-5, .cls-2 {
        stroke: #150013;
        stroke-linecap: round;
        stroke-width: 4px;
      }

      .cls-5, .cls-2, .cls-3 {
        fill: none;
      }

      .cls-4 {
        fill: #f8cb46;
      }

      .cls-6 {
        fill: #150013;
      }
    </style>
  </defs>
  <g id="Layer_1-2" data-name="Layer 1">
    <g>
      <ellipse class="cls-4" cx="139.92" cy="84.24" rx="82.87" ry="83.24"/>
      <path class="cls-2" d="M2,43.8c.45,4.62,2.81,23.5,18.47,39.26,14.99,15.09,32.27,17.35,36.91,17.81"/>
      <ellipse class="cls-1" cx="139.92" cy="88.12" rx="80.9" ry="81.27"/>
      <ellipse class="cls-6" cx="113.33" cy="73.9" rx="10.23" ry="14.74"/>
      <ellipse class="cls-6" cx="164.55" cy="72.86" rx="10.23" ry="14.74"/>
      <path class="cls-6" d="M138.56,104.51c11.31-.29,14.81-2.94,22.8-4.52,1.97-.39,3.85,1.06,3.94,3.08.19,4.52-.44,12.06-5.44,19.38-1.5,2.19-3.16,4.03-4.87,5.56-8.34,7.48-20.87,7.82-29.87,1.16-2.24-1.66-4.42-3.74-6.33-6.36-.05-.06-8.87-17.18-5.47-19.65.57-.41,1.28-.29,1.5-.25,6.47.97,19.42,1.71,23.72,1.6Z"/>
      <circle class="cls-3" cx="138.94" cy="88.12" r="65.4"/>
      <path class="cls-2" d="M222.79,93.17c3.58,13.24,6.9,30.83,7.03,51.62.09,14.93-1.48,28.05-3.52,38.83"/>
      <path class="cls-5" d="M111.47,167.09c-2.03,12.37-3.7,25.88-4.68,40.39-1.45,21.28-1.17,40.76,0,57.97"/>
      <path class="cls-5" d="M167.7,164.09c2.15,12.35,3.94,25.84,5.07,40.35,1.65,21.27,1.55,40.74.55,57.97"/>
    </g>
  </g>
</svg>