<?xml version="1.0" encoding="UTF-8"?>
<svg id="APP" xmlns="http://www.w3.org/2000/svg" viewBox="0 0 1920 1300.08">
  <defs>
    <style>
      .cls-1 {
        fill: #151a21;
      }
    </style>
  </defs>
  <path class="cls-1" d="m1160.19,291.52c-56.89,0-103.01,46.12-103.01,103.01v310.84c0,53.57-43.6,97.17-97.19,97.17-53.59,0-97.17-43.6-97.17-97.17v-310.84c0-56.89-46.12-103.01-103.01-103.01-56.9,0-103.01,46.12-103.01,103.01v310.84c0,167.19,136.01,303.2,303.2,303.2,167.19,0,303.22-136,303.22-303.2v-310.84c0-56.89-46.12-103.01-103.01-103.01"/>
  <path class="cls-1" d="m503.41,291.51c-56.89,0-103.01,46.12-103.01,103.01v61.47s0,249.37,0,249.37c0,53.57-43.6,97.17-97.19,97.17-53.59,0-97.17-43.6-97.17-97.17v-310.84c0-56.89-46.12-103.01-103.01-103.01C46.11,291.51,0,337.63,0,394.52v310.84c0,167.19,136.01,303.2,303.2,303.2,34,0,66.66-5.69,97.19-16.05v204.56c0,56.89,46.12,103.01,103.01,103.01,56.89,0,103.01-46.12,103.01-103.01v-491.71s0-249.37,0-249.37v-61.47c0-56.89-46.12-103.01-103.01-103.01"/>
  <path class="cls-1" d="m1616.78,291.52c-34,0-66.64,5.71-97.17,16.07V103.03c0-56.9-46.12-103.03-103.03-103.03-56.89,0-103.01,46.12-103.01,103.03v491.71s0,249.37,0,249.37v61.45c0,56.9,46.12,103.03,103.01,103.03,56.9,0,103.03-46.12,103.03-103.03v-61.45s0-249.37,0-249.37c0-53.59,43.59-97.19,97.17-97.19,53.59,0,97.17,43.6,97.17,97.19v310.82c0,56.9,46.12,103.03,103.03,103.03,56.89,0,103.01-46.12,103.01-103.03v-310.82c0-167.19-136.02-303.22-303.21-303.22"/>
</svg>